[Header]
FileType HTR
DataType HTRS
FileVersion 1
NumSegments 64
NumFrames 4
DataFrameRate 30
EulerRotationOrder ZYX
CalibrationUnits mm
RotationUnits Degrees
GlobalAxisofGravity Y
BoneLengthAxis Y
ScaleFactor 1.0
[SegmentNames&Hierarchy]
Hips	GLOBAL
Spine	Hips
Spine1	Spine
Spine2	Spine1
Neck	Spine2
Head	Neck
LeftEye	Head
RightEye	Head
LeftShoulder	Spine2
LeftArm	LeftShoulder
LeftForeArm	LeftArm
LeftHand	LeftForeArm
LeftHandThumb1	LeftHand
LeftHandThumb2	LeftHandThumb1
LeftHandThumb3	LeftHandThumb2
LeftHandThumb4	LeftHandThumb3
LeftHandIndex1	LeftHand
LeftHandIndex2	LeftHandIndex1
LeftHandIndex3	LeftHandIndex2
LeftHandIndex4	LeftHandIndex3
LeftHandMiddle1	LeftHand
LeftHandMiddle2	LeftHandMiddle1
LeftHandMiddle3	LeftHandMiddle2
LeftHandMiddle4	LeftHandMiddle3
LeftHandRing1	LeftHand
LeftHandRing2	LeftHandRing1
LeftHandRing3	LeftHandRing2
LeftHandRing4	LeftHandRing3
LeftHandPinky1	LeftHand
LeftHandPinky2	LeftHandPinky1
LeftHandPinky3	LeftHandPinky2
LeftHandPinky4	LeftHandPinky3
RightShoulder	Spine2
RightArm	RightShoulder
RightForeArm	RightArm
RightHand	RightForeArm
RightHandPinky1	RightHand
RightHandPinky2	RightHandPinky1
RightHandPinky3	RightHandPinky2
RightHandPinky4	RightHandPinky3
RightHandRing1	RightHand
RightHandRing2	RightHandRing1
RightHandRing3	RightHandRing2
RightHandRing4	RightHandRing3
RightHandMiddle1	RightHand
RightHandMiddle2	RightHandMiddle1
RightHandMiddle3	RightHandMiddle2
RightHandMiddle4	RightHandMiddle3
RightHandIndex1	RightHand
RightHandIndex2	RightHandIndex1
RightHandIndex3	RightHandIndex2
RightHandIndex4	RightHandIndex3
RightHandThumb1	RightHand
RightHandThumb2	RightHandThumb1
RightHandThumb3	RightHandThumb2
RightHandThumb4	RightHandThumb3
LeftUpLeg	Hips
LeftLeg	LeftUpLeg
LeftFoot	LeftLeg
LeftToeBase	LeftFoot
RightUpLeg	Hips
RightLeg	RightUpLeg
RightFoot	RightLeg
RightToeBase	RightFoot
[BasePosition]
Hips	0	0	0	0	0	0	1
Spine	0	0	0	0	0	0	1
Spine1	0	0	0	0	0	0	1
Spine2	0	0	0	0	0	0	1
Neck	0	0	0	0	0	0	1
Head	0	0	0	0	0	0	1
LeftEye	0	0	0	0	0	0	1
RightEye	0	0	0	0	0	0	1
LeftShoulder	0	0	0	0	0	0	1
LeftArm	0	0	0	0	0	0	1
LeftForeArm	0	0	0	0	0	0	1
LeftHand	0	0	0	0	0	0	1
LeftHandThumb1	0	0	0	0	0	0	1
LeftHandThumb2	0	0	0	0	0	0	1
LeftHandThumb3	0	0	0	0	0	0	1
LeftHandThumb4	0	0	0	0	0	0	1
LeftHandIndex1	0	0	0	0	0	0	1
LeftHandIndex2	0	0	0	0	0	0	1
LeftHandIndex3	0	0	0	0	0	0	1
LeftHandIndex4	0	0	0	0	0	0	1
LeftHandMiddle1	0	0	0	0	0	0	1
LeftHandMiddle2	0	0	0	0	0	0	1
LeftHandMiddle3	0	0	0	0	0	0	1
LeftHandMiddle4	0	0	0	0	0	0	1
LeftHandRing1	0	0	0	0	0	0	1
LeftHandRing2	0	0	0	0	0	0	1
LeftHandRing3	0	0	0	0	0	0	1
LeftHandRing4	0	0	0	0	0	0	1
LeftHandPinky1	0	0	0	0	0	0	1
LeftHandPinky2	0	0	0	0	0	0	1
LeftHandPinky3	0	0	0	0	0	0	1
LeftHandPinky4	0	0	0	0	0	0	1
RightShoulder	0	0	0	0	0	0	1
RightArm	0	0	0	0	0	0	1
RightForeArm	0	0	0	0	0	0	1
RightHand	0	0	0	0	0	0	1
RightHandPinky1	0	0	0	0	0	0	1
RightHandPinky2	0	0	0	0	0	0	1
RightHandPinky3	0	0	0	0	0	0	1
RightHandPinky4	0	0	0	0	0	0	1
RightHandRing1	0	0	0	0	0	0	1
RightHandRing2	0	0	0	0	0	0	1
RightHandRing3	0	0	0	0	0	0	1
RightHandRing4	0	0	0	0	0	0	1
RightHandMiddle1	0	0	0	0	0	0	1
RightHandMiddle2	0	0	0	0	0	0	1
RightHandMiddle3	0	0	0	0	0	0	1
RightHandMiddle4	0	0	0	0	0	0	1
RightHandIndex1	0	0	0	0	0	0	1
RightHandIndex2	0	0	0	0	0	0	1
RightHandIndex3	0	0	0	0	0	0	1
RightHandIndex4	0	0	0	0	0	0	1
RightHandThumb1	0	0	0	0	0	0	1
RightHandThumb2	0	0	0	0	0	0	1
RightHandThumb3	0	0	0	0	0	0	1
RightHandThumb4	0	0	0	0	0	0	1
LeftUpLeg	0	0	0	0	0	0	1
LeftLeg	0	0	0	0	0	0	1
LeftFoot	0	0	0	0	0	0	1
LeftToeBase	0	0	0	0	0	0	1
RightUpLeg	0	0	0	0	0	0	1
RightLeg	0	0	0	0	0	0	1
RightFoot	0	0	0	0	0	0	1
RightToeBase	0	0	0	0	0	0	1
[Hips]
56	-73.26079559	1106.425903	-842.1056519	-160.1807556	5.755910873	-2.230022192	1.0
57	-76.16778564	1117.940918	-876.0234375	-172.9070282	5.810360432	-3.505368233	1.0
58	-77.34341431	1121.497803	-919.0960693	-185.4659882	6.227227688	-3.63681221	1.0
59	-79.92201996	1114.609619	-977.819458	-197.7598877	6.646875381	-3.813102961	1.0
[Spine]
56	0	101.8159943	1.315000057	8.70364666	-0.6736927032	-1.668422699	1.0
57	0	101.8159943	1.315000057	8.493397713	-0.8227440715	-2.243421555	1.0
58	0	101.8159943	1.315000057	7.610311985	-0.7813713551	-2.136344433	1.0
59	0	101.8159943	1.315000057	6.579889774	-0.5559244156	-1.732968092	1.0
[Spine1]
56	0	100.8349991	-10.00800037	17.39281273	-0.4104049802	-2.021225929	1.0
57	0	100.8349991	-10.00800037	16.94182777	-0.002448150422	-2.405944586	1.0
58	0	100.8349991	-10.00800037	15.17304897	0.21323511	-2.145490408	1.0
59	0	100.8349991	-10.00800037	13.12963676	0.1105644181	-2.168199778	1.0
[Spine2]
56	0	91	-13.73399925	17.39282227	-0.4104064107	-2.021225452	1.0
57	0	91	-13.73399925	16.94182396	-0.002449288964	-2.405944347	1.0
58	0	91	-13.73399925	15.17304611	0.2132336497	-2.145491838	1.0
59	0	91	-13.73399925	13.12963295	0.1105649471	-2.168199539	1.0
[Neck]
56	0	166.7169952	-25.16200066	-6.174888134	-2.624808311	-6.816972733	1.0
57	0	166.7169952	-25.16200066	-0.228671357	-1.917616248	-7.059569836	1.0
58	0	166.7169952	-25.16200066	5.814555645	-0.7683843374	-7.296558857	1.0
59	0	166.7169952	-25.16200066	10.09558868	0.05029526725	-7.331422329	1.0
[Head]
56	0	96.17900085	16.84999847	-64.00860596	-10.09210682	5.161561489	1.0
57	0	96.17900085	16.84999847	-56.598526	-9.697690964	4.540995598	1.0
58	0	96.17900085	16.84999847	-47.91949463	-7.693002224	4.241930962	1.0
59	0	96.17900085	16.84999847	-41.31004715	-6.500350475	2.259914398	1.0
[LeftEye]
56	30.6760006	64.09500122	92.83599854	0	0	0	1.0
57	30.6760006	64.09500122	92.83599854	0	0	0	1.0
58	30.6760006	64.09500122	92.83599854	0	0	0	1.0
59	30.6760006	64.09500122	92.83599854	0	0	0	1.0
[RightEye]
56	-30.6760006	64.09500122	92.83499908	0	0	0	1.0
57	-30.6760006	64.09500122	92.83499908	0	0	0	1.0
58	-30.6760006	64.09500122	92.83499908	0	0	0	1.0
59	-30.6760006	64.09500122	92.83499908	0	0	0	1.0
[LeftShoulder]
56	45.70400238	109.4599991	-26.28000069	8.431530952	-31.08209801	-11.12453842	1.0
57	45.70400238	109.4599991	-26.28000069	9.490383148	-33.02955627	-11.99236393	1.0
58	45.70400238	109.4599991	-26.28000069	10.40437603	-34.15429306	-12.85897541	1.0
59	45.70400238	109.4599991	-26.28000069	10.53098392	-34.52035522	-12.91252613	1.0
[LeftArm]
56	105.923996	-5.24600029	-22.32099915	-32.15231705	12.56772232	-55.025177	1.0
57	105.923996	-5.24600029	-22.32099915	-31.31697273	17.31265831	-52.94918823	1.0
58	105.923996	-5.24600029	-22.32099915	-30.59394455	21.61517906	-52.49964142	1.0
59	105.923996	-5.24600029	-22.32099915	-31.40454102	23.28845215	-50.98526382	1.0
[LeftForeArm]
56	278.414978	-0.0009999999311	0	-539.8171387	-107.123085	539.5565796	1.0
57	278.414978	-0.0009999999311	0	-540.4012451	-113.930191	540.4333496	1.0
58	278.414978	-0.0009999999311	0	-540.8278809	-119.9333267	541.262207	1.0
59	278.414978	-0.0009999999311	0	-540.9741211	-124.7669067	541.7127075	1.0
[LeftHand]
56	283.2879944	0	0	-4.560108662	7.168130875	37.76046371	1.0
57	283.2879944	0	0	-7.403439045	1.067049503	37.4392395	1.0
58	283.2879944	0	0	-4.775920391	-8.199175835	34.94501114	1.0
59	283.2879944	0	0	-0.1786155105	-15.75426865	32.57256699	1.0
[LeftHandThumb1]
56	24.6609993	-15.75	26.8239994	1.826416492	4.653350353	15.08797455	1.0
57	24.6609993	-15.75	26.8239994	1.470593214	3.844813824	15.0970459	1.0
58	24.6609993	-15.75	26.8239994	1.02442944	2.909040689	15.1018219	1.0
59	24.6609993	-15.75	26.8239994	0.5123467445	1.883496046	15.11384869	1.0
[LeftHandThumb2]
56	32.29800034	-18.64699936	18.64699936	4.620245457	17.53447914	4.864573956	1.0
57	32.29800034	-18.64699936	18.64699936	4.605405331	16.49373436	3.997954607	1.0
58	32.29800034	-18.64699936	18.64699936	4.593064785	15.26228619	3.00373745	1.0
59	32.29800034	-18.64699936	18.64699936	4.585659027	13.89365292	1.916953325	1.0
[LeftHandThumb3]
56	26.52600098	-15.31499958	15.31499958	3.601811159e-06	-8.438974328e-05	-6.943767221e-05	1.0
57	26.52600098	-15.31499958	15.31499958	3.601811159e-06	-8.438974328e-05	-6.943767221e-05	1.0
58	26.52600098	-15.31499958	15.31499958	3.601811159e-06	-8.438974328e-05	-6.943767221e-05	1.0
59	26.52600098	-15.31499958	15.31499958	3.601811159e-06	-8.438974328e-05	-6.943767221e-05	1.0
[LeftHandThumb4]
56	19.54599953	-11.28499985	11.28499985	0	0	0	1.0
57	19.54599953	-11.28499985	11.28499985	0	0	0	1.0
58	19.54599953	-11.28499985	11.28499985	0	0	0	1.0
59	19.54599953	-11.28499985	11.28499985	0	0	0	1.0
[LeftHandIndex1]
56	91.09299469	-5.170999527	22.60099792	-0.3370859325	-2.122986555	-15.17126369	1.0
57	91.09299469	-5.170999527	22.60099792	-0.3011150658	-1.998443127	-14.58287525	1.0
58	91.09299469	-5.170999527	22.60099792	-0.2576120496	-1.851618886	-13.88601971	1.0
59	91.09299469	-5.170999527	22.60099792	-0.2082616985	-1.689246774	-13.11146164	1.0
[LeftHandIndex2]
56	36.76399994	0	0	-1.116791725	-2.39247179	-40.01564026	1.0
57	36.76399994	0	0	-1.082885742	-2.094673872	-37.91665268	1.0
58	36.76399994	0	0	-1.028296471	-1.744027019	-35.4315033	1.0
59	36.76399994	0	0	-0.9498808384	-1.357653856	-32.67008972	1.0
[LeftHandIndex3]
56	28.83100128	0	0	-1.432096042e-06	3.907105395e-07	1.552835329e-06	1.0
57	28.83100128	0	0	-1.432096042e-06	3.907105395e-07	1.552835329e-06	1.0
58	28.83100128	0	0	-1.432096042e-06	3.907105395e-07	1.552835329e-06	1.0
59	28.83100128	0	0	-1.432096042e-06	3.907105395e-07	1.552835329e-06	1.0
[LeftHandIndex4]
56	23.92700005	0	0	0	0	0	1.0
57	23.92700005	0	0	0	0	0	1.0
58	23.92700005	0	0	0	0	0	1.0
59	23.92700005	0	0	0	0	0	1.0
[LeftHandMiddle1]
56	95.33399963	0	0	-1.197495461	-0.9641468525	-25.86961746	1.0
57	95.33399963	0	0	-1.147616506	-0.8564247489	-24.97575188	1.0
58	95.33399963	0	0	-1.086313725	-0.729972899	-23.91729546	1.0
59	95.33399963	0	0	-1.015495539	-0.5908142924	-22.74100876	1.0
[LeftHandMiddle2]
56	36.98199844	0	0	-0.6889671683	-3.719531536	-38.7730751	1.0
57	36.98199844	0	0	-0.6972727776	-3.447864532	-36.54584503	1.0
58	36.98199844	0	0	-0.6930770874	-3.12607789	-33.90939331	1.0
59	36.98199844	0	0	-0.671054244	-2.76923728	-30.98062325	1.0
[LeftHandMiddle3]
56	29.50900078	0	0	0	-3.180554719e-15	-7.951386796e-16	1.0
57	29.50900078	0	0	0	-3.180554719e-15	-7.951386796e-16	1.0
58	29.50900078	0	0	0	-3.180554719e-15	-7.951386796e-16	1.0
59	29.50900078	0	0	0	-3.180554719e-15	-7.951386796e-16	1.0
[LeftHandMiddle4]
56	28.3390007	0	0	0	0	0	1.0
57	28.3390007	0	0	0	0	0	1.0
58	28.3390007	0	0	0	0	0	1.0
59	28.3390007	0	0	0	0	0	1.0
[LeftHandRing1]
56	91.04499817	-0.4390000105	-18.65100098	-3.186108828	4.182553291	-37.58455276	1.0
57	91.04499817	-0.4390000105	-18.65100098	-3.167758465	4.343883038	-36.61584854	1.0
58	91.04499817	-0.4390000105	-18.65100098	-3.143163204	4.534214973	-35.46844482	1.0
59	91.04499817	-0.4390000105	-18.65100098	-3.112420321	4.744772434	-34.19300079	1.0
[LeftHandRing2]
56	31.54000092	0	0	2.942201853	-2.819888592	-47.76791	1.0
57	31.54000092	0	0	2.751237631	-2.794099092	-45.53287888	1.0
58	31.54000092	0	0	2.526684999	-2.753698587	-42.88656616	1.0
59	31.54000092	0	0	2.279707193	-2.69672513	-39.94630432	1.0
[LeftHandRing3]
56	29.37700081	0	0	1.590277359e-15	3.180554719e-15	-7.951386796e-16	1.0
57	29.37700081	0	0	1.590277359e-15	3.180554719e-15	-7.951386796e-16	1.0
58	29.37700081	0	0	1.590277359e-15	3.180554719e-15	-7.951386796e-16	1.0
59	29.37700081	0	0	1.590277359e-15	3.180554719e-15	-7.951386796e-16	1.0
[LeftHandRing4]
56	26.47500038	0	0	0	0	0	1.0
57	26.47500038	0	0	0	0	0	1.0
58	26.47500038	0	0	0	0	0	1.0
59	26.47500038	0	0	0	0	0	1.0
[LeftHandPinky1]
56	80.77799988	-4.887000084	-38.06099701	-3.810120583	8.318880081	-36.22937012	1.0
57	80.77799988	-4.887000084	-38.06099701	-3.812101126	8.622423172	-35.24540329	1.0
58	80.77799988	-4.887000084	-38.06099701	-3.811613083	8.980843544	-34.08150864	1.0
59	80.77799988	-4.887000084	-38.06099701	-3.807831526	9.37792778	-32.78843307	1.0
[LeftHandPinky2]
56	36	0	0	5.850298882	-3.915848494	-52.06966782	1.0
57	36	0	0	5.685386658	-4.013978958	-50.85405731	1.0
58	36	0	0	5.486733913	-4.126213551	-49.40515137	1.0
59	36	0	0	5.262313843	-4.245470524	-47.78923798	1.0
[LeftHandPinky3]
56	21.14200211	0	0	3.226109357e-06	2.925280342e-06	-5.739977951e-06	1.0
57	21.14200211	0	0	3.226109357e-06	2.925280342e-06	-5.739977951e-06	1.0
58	21.14200211	0	0	3.226109357e-06	2.925280342e-06	-5.739977951e-06	1.0
59	21.14200211	0	0	3.226109357e-06	2.925280342e-06	-5.739977951e-06	1.0
[LeftHandPinky4]
56	19.75699997	0	0	0	0	0	1.0
57	19.75699997	0	0	0	0	0	1.0
58	19.75699997	0	0	0	0	0	1.0
59	19.75699997	0	0	0	0	0	1.0
[RightShoulder]
56	-45.70000076	109.4620056	-26.28000069	0.9827868342	15.10067844	1.033049107	1.0
57	-45.70000076	109.4620056	-26.28000069	1.548411489	19.059412	3.91184783	1.0
58	-45.70000076	109.4620056	-26.28000069	2.390850067	21.96718025	6.841012001	1.0
59	-45.70000076	109.4620056	-26.28000069	2.708665848	23.08639526	8.028541565	1.0
[RightArm]
56	-105.9280014	-5.248000145	-22.32099915	-15.54719353	-1.04217577	48.49314499	1.0
57	-105.9280014	-5.248000145	-22.32099915	-14.32792282	-5.665483475	46.74900818	1.0
58	-105.9280014	-5.248000145	-22.32099915	-13.59468746	-10.37722874	44.57392883	1.0
59	-105.9280014	-5.248000145	-22.32099915	-14.88212967	-15.12148571	44.25062561	1.0
[RightForeArm]
56	-278.414978	0	0	-177.6819611	139.1785889	-178.0717163	1.0
57	-278.414978	0	0	-178.3523712	145.7241364	-179.0598297	1.0
58	-278.414978	0	0	-178.7879486	150.5416565	-179.7306976	1.0
59	-278.414978	0	0	-178.8934631	152.1464386	-180.0429382	1.0
[RightHand]
56	-283.2879944	0	0.0009999999311	2.54774642	15.21791744	-34.74263763	1.0
57	-283.2879944	0	0.0009999999311	1.900872707	17.25631905	-30.10251236	1.0
58	-283.2879944	0	0.0009999999311	2.434160471	18.12275505	-25.22444916	1.0
59	-283.2879944	0	0.0009999999311	0.4643979073	19.23271561	-23.25289917	1.0
[RightHandPinky1]
56	-80.76699829	-4.885000229	-38.06000137	-0.7515425682	-9.162788391	35.07067871	1.0
57	-80.76699829	-4.885000229	-38.06000137	-0.6370823979	-10.33345222	29.77983284	1.0
58	-80.76699829	-4.885000229	-38.06000137	-0.4740367532	-11.36814785	24.92788315	1.0
59	-80.76699829	-4.885000229	-38.06000137	-0.3662422597	-11.96251392	22.17228699	1.0
[RightHandPinky2]
56	-36	0	0.0009999999311	7.69611311	6.212568283	55.57121658	1.0
57	-36	0	0.0009999999311	7.934365749	6.126598835	56.98402786	1.0
58	-36	0	0.0009999999311	8.161717415	6.038173676	58.34525299	1.0
59	-36	0	0.0009999999311	8.361829758	5.955046654	59.55621719	1.0
[RightHandPinky3]
56	-21.14200211	0	0	-1.590277359e-15	0	-7.951386796e-16	1.0
57	-21.14200211	0	0	-1.590277359e-15	0	-7.951386796e-16	1.0
58	-21.14200211	0	0	-1.590277359e-15	0	-7.951386796e-16	1.0
59	-21.14200211	0	0	-1.590277359e-15	0	-7.951386796e-16	1.0
[RightHandPinky4]
56	-19.75699997	0	0	0	0	0	1.0
57	-19.75699997	0	0	0	0	0	1.0
58	-19.75699997	0	0	0	0	0	1.0
59	-19.75699997	0	0	0	0	0	1.0
[RightHandRing1]
56	-91.03599548	-0.4390000105	-18.65100098	-1.852725983	-5.283071041	34.57801056	1.0
57	-91.03599548	-0.4390000105	-18.65100098	-1.603768229	-5.784244061	29.56110001	1.0
58	-91.03599548	-0.4390000105	-18.65100098	-1.330134273	-6.225950241	24.96723557	1.0
59	-91.03599548	-0.4390000105	-18.65100098	-1.160309196	-6.470597267	22.36401939	1.0
[RightHandRing2]
56	-31.54000092	0	0	3.218328476	3.766709805	45.93419647	1.0
57	-31.54000092	0	0	3.223470688	3.768202782	45.98385239	1.0
58	-31.54000092	0	0	3.228404045	3.76963377	46.0316124	1.0
59	-31.54000092	0	0	3.232775211	3.770906687	46.0738945	1.0
[RightHandRing3]
56	-29.37700081	0	0	5.740008078e-07	-7.531911024e-07	-2.69121324e-06	1.0
57	-29.37700081	0	0	5.740008078e-07	-7.531911024e-07	-2.69121324e-06	1.0
58	-29.37700081	0	0	5.740008078e-07	-7.531911024e-07	-2.69121324e-06	1.0
59	-29.37700081	0	0	5.740008078e-07	-7.531911024e-07	-2.69121324e-06	1.0
[RightHandRing4]
56	-26.47500038	0	0	0	0	0	1.0
57	-26.47500038	0	0	0	0	0	1.0
58	-26.47500038	0	0	0	0	0	1.0
59	-26.47500038	0	0	0	0	0	1.0
[RightHandMiddle1]
56	-95.32500458	0	0	-2.108829975	0.5158758759	22.09736061	1.0
57	-95.32500458	0	0	-1.895943403	0.1457385868	18.87551689	1.0
58	-95.32500458	0	0	-1.682341099	-0.1835780144	15.91066265	1.0
59	-95.32500458	0	0	-1.555613041	-0.3662752211	14.23132229	1.0
[RightHandMiddle2]
56	-36.98199844	0	0	-0.9431914687	3.606635332	44.43126678	1.0
57	-36.98199844	0	0	-0.9460745454	3.514682293	43.56702042	1.0
58	-36.98199844	0	0	-0.9475597143	3.426184654	42.73567963	1.0
59	-36.98199844	0	0	-0.9478265047	3.347845078	41.9999733	1.0
[RightHandMiddle3]
56	-29.50900078	0	0	1.856611448e-06	-0.002022909233	1.577868488e-06	1.0
57	-29.50900078	0	0	1.856611448e-06	-0.002022909233	1.577868488e-06	1.0
58	-29.50900078	0	0	1.856611448e-06	-0.002022909233	1.577868488e-06	1.0
59	-29.50900078	0	0	1.856611448e-06	-0.002022909233	1.577868488e-06	1.0
[RightHandMiddle4]
56	-28.3390007	0	0.0009999999311	0	0	0	1.0
57	-28.3390007	0	0.0009999999311	0	0	0	1.0
58	-28.3390007	0	0.0009999999311	0	0	0	1.0
59	-28.3390007	0	0.0009999999311	0	0	0	1.0
[RightHandIndex1]
56	-91.08300018	-5.167999744	22.60099792	-1.349514008	1.555972576	12.04589844	1.0
57	-91.08300018	-5.167999744	22.60099792	-1.106088758	1.058515787	8.868154526	1.0
58	-91.08300018	-5.167999744	22.60099792	-0.8657265306	0.6177330613	5.937944412	1.0
59	-91.08300018	-5.167999744	22.60099792	-0.7244206071	0.3742668331	4.277677059	1.0
[RightHandIndex2]
56	-36.76399994	0	0	-1.409164429	1.634172559	40.27799225	1.0
57	-36.76399994	0	0	-1.433251262	1.752133965	41.21523285	1.0
58	-36.76399994	0	0	-1.454610467	1.865975976	42.11689758	1.0
59	-36.76399994	0	0	-1.472055674	1.966991305	42.91492081	1.0
[RightHandIndex3]
56	-28.83100128	0	0	-3.180554719e-15	0	0	1.0
57	-28.83100128	0	0	-3.180554719e-15	0	0	1.0
58	-28.83100128	0	0	-3.180554719e-15	0	0	1.0
59	-28.83100128	0	0	-3.180554719e-15	0	0	1.0
[RightHandIndex4]
56	-23.92700005	0	0	0	0	0	1.0
57	-23.92700005	0	0	0	0	0	1.0
58	-23.92700005	0	0	0	0	0	1.0
59	-23.92700005	0	0	0	0	0	1.0
[RightHandThumb1]
56	-24.64799881	-15.72700024	26.82600021	-4.241373539	0.224145785	-14.00623798	1.0
57	-24.64799881	-15.72700024	26.82600021	-3.827225447	1.442324996	-14.31105709	1.0
58	-24.64799881	-15.72700024	26.82600021	-3.44786644	2.551075935	-14.58598328	1.0
59	-24.64799881	-15.72700024	26.82600021	-3.18671608	3.21532917	-14.79401588	1.0
[RightHandThumb2]
56	-32.29800034	-18.64699936	18.64699936	9.113223076	-14.33547688	-2.052506447	1.0
57	-32.29800034	-18.64699936	18.64699936	7.144296646	-11.05597496	0.2173709422	1.0
58	-32.29800034	-18.64699936	18.64699936	5.446922302	-8.070968628	2.09631753	1.0
59	-32.29800034	-18.64699936	18.64699936	4.548053741	-6.393900394	3.163110495	1.0
[RightHandThumb3]
56	-26.52600098	-15.31399918	15.31399918	-3.81245151e-08	-0.00121095567	-0.001221005921	1.0
57	-26.52600098	-15.31399918	15.31399918	-3.81245151e-08	-0.00121095567	-0.001221005921	1.0
58	-26.52600098	-15.31399918	15.31399918	-3.81245151e-08	-0.00121095567	-0.001221005921	1.0
59	-26.52600098	-15.31399918	15.31399918	-3.81245151e-08	-0.00121095567	-0.001221005921	1.0
[RightHandThumb4]
56	-19.54599953	-11.28499985	11.28499985	0	0	0	1.0
57	-19.54599953	-11.28499985	11.28499985	0	0	0	1.0
58	-19.54599953	-11.28499985	11.28499985	0	0	0	1.0
59	-19.54599953	-11.28499985	11.28499985	0	0	0	1.0
[LeftUpLeg]
56	82.07800293	-67.51699829	-15.99599934	-82.89110565	2.475643635	-17.52072144	1.0
57	82.07800293	-67.51699829	-15.99599934	-80.61011505	5.263329029	-8.726537704	1.0
58	82.07800293	-67.51699829	-15.99599934	-75.14580536	8.086083412	1.530365229	1.0
59	82.07800293	-67.51699829	-15.99599934	-73.22889709	10.91027451	11.31963634	1.0
[LeftLeg]
56	0	-443.7049866	2.845999956	101.9503632	-15.12994576	-6.831024647	1.0
57	0	-443.7049866	2.845999956	85.6352005	-7.53767395	-15.91603279	1.0
58	0	-443.7049866	2.845999956	68.86169434	-2.593341589	-23.2916069	1.0
59	0	-443.7049866	2.845999956	57.86950684	5.529707432	-24.06708908	1.0
[LeftFoot]
56	0	-444.2789917	-29.8219986	33.32014465	2.11790657	-2.135607481	1.0
57	0	-444.2789917	-29.8219986	34.06184769	10.12347317	-7.565957546	1.0
58	0	-444.2789917	-29.8219986	26.94118881	13.95500565	-10.93737984	1.0
59	0	-444.2789917	-29.8219986	15.12096882	12.74943733	-9.668748856	1.0
[LeftToeBase]
56	0	-87.28699493	107.1060028	9.490261078	-1.762966804e-07	-6.3732532e-06	1.0
57	0	-87.28699493	107.1060028	10.9869709	-4.492028438e-06	-1.183063068e-05	1.0
58	0	-87.28699493	107.1060028	9.308068275	-3.371225148e-06	-8.703499589e-06	1.0
59	0	-87.28699493	107.1060028	6.206144333	-3.434581913e-06	-3.29079694e-06	1.0
[RightUpLeg]
56	-82.07800293	-67.51699829	-15.99599934	-70.44558716	-3.04293561	-6.128567219	1.0
57	-82.07800293	-67.51699829	-15.99599934	-69.16086578	-4.198090553	-1.270936608	1.0
58	-82.07800293	-67.51699829	-15.99599934	-66.80010223	-5.650346279	4.305116177	1.0
59	-82.07800293	-67.51699829	-15.99599934	-70.46222687	-6.185965061	9.263454437	1.0
[RightLeg]
56	0	-443.7049866	2.861999989	78.76177216	-4.503261566	-32.9626236	1.0
57	0	-443.7049866	2.861999989	66.50279236	-4.561651707	-24.01124573	1.0
58	0	-443.7049866	2.861999989	55.45258713	-3.602245092	-18.27392197	1.0
59	0	-443.7049866	2.861999989	54.14692688	0.794200778	-13.73373508	1.0
[RightFoot]
56	0	-444.2770081	-29.83799934	-4.985021114	7.858452797	-18.96731186	1.0
57	0	-444.2770081	-29.83799934	1.118208051	4.987017155	-14.30834293	1.0
58	0	-444.2770081	-29.83799934	5.402476311	7.584896088	-5.72092104	1.0
59	0	-444.2770081	-29.83799934	2.490571022	10.94908619	4.790754318	1.0
[RightToeBase]
56	0	-87.28699493	107.1060028	2.165010452	-4.75865545e-06	-4.935246579e-06	1.0
57	0	-87.28699493	107.1060028	4.626148701	1.034899833e-05	9.228005183e-06	1.0
58	0	-87.28699493	107.1060028	6.902831078	-2.883802608e-06	7.915919014e-06	1.0
59	0	-87.28699493	107.1060028	8.618418694	-6.692318493e-06	2.840248214e-07	1.0
[EndOfFile]
